<svg width="676" height="528" viewBox="0 0 676 528" fill="none" xmlns="http://www.w3.org/2000/svg">
<rect width="676" height="528" rx="24" fill="#D9D9D9"/>
<path d="M498 72H178C161.032 72.0185 144.764 78.7673 132.766 90.7656C120.767 102.764 114.019 119.032 114 136V392C114.019 408.968 120.767 425.236 132.766 437.234C144.764 449.233 161.032 455.981 178 456H498C514.968 455.981 531.236 449.233 543.234 437.234C555.233 425.236 561.981 408.968 562 392V136C561.981 119.032 555.233 102.764 543.234 90.7656C531.236 78.7673 514.968 72.0185 498 72ZM418 136C427.494 136 436.774 138.815 444.667 144.089C452.561 149.364 458.713 156.86 462.346 165.631C465.979 174.402 466.93 184.053 465.078 193.364C463.226 202.675 458.654 211.228 451.941 217.941C445.228 224.654 436.675 229.226 427.364 231.078C418.053 232.93 408.402 231.979 399.631 228.346C390.86 224.713 383.364 218.561 378.089 210.667C372.815 202.774 370 193.494 370 184C370.013 171.274 375.075 159.072 384.073 150.073C393.072 141.075 405.274 136.013 418 136ZM178 424C169.513 424 161.374 420.629 155.373 414.627C149.371 408.626 146 400.487 146 392V324.37L240.84 240.07C249.99 231.955 261.891 227.633 274.116 227.986C286.342 228.339 297.973 233.34 306.64 241.97L371.59 306.78L254.37 424H178ZM530 392C530 400.487 526.629 408.626 520.627 414.627C514.626 420.629 506.487 424 498 424H299.63L421.05 302.58C429.647 295.269 440.556 291.242 451.841 291.212C463.126 291.183 474.056 295.154 482.69 302.42L530 341.84V392Z" fill="black"/>
</svg>
